<svg id="Icon_solid_logout" data-name="Icon/solid/logout" xmlns="http://www.w3.org/2000/svg" width="24" height="24" viewBox="0 0 24 24"><path id="Rectangle_554" data-name="Rectangle 554" style="fill:none" d="M0 0h24v24H0z"/><path id="Union_22" data-name="Union 22" d="m-287.1 70.983-9.163-1.833a.917.917 0 0 1-.737-.9V49.917c0-.018.013-.035.013-.053a.475.475 0 0 1 0-.08.846.846 0 0 1 .072-.214.772.772 0 0 1 .025-.077.912.912 0 0 1 .244-.289c.007-.006.011-.016.018-.022s.044-.015.064-.028a.938.938 0 0 1 .265-.114.943.943 0 0 1 .124-.022.817.817 0 0 1 .094-.018h14.661a.917.917 0 0 1 .916.917v5.5a.916.916 0 0 1-.916.917.916.916 0 0 1-.916-.917v-4.583h-7.5l3.182.955a.918.918 0 0 1 .652.878v14.667h3.666v-4.583a.917.917 0 0 1 .916-.917.917.917 0 0 1 .916.917v5.5a.916.916 0 0 1-.916.916H-286v.917a.919.919 0 0 1-.335.708.917.917 0 0 1-.581.208.863.863 0 0 1-.184-.017Zm7.78-8.5a.917.917 0 0 1 0-1.3l1.188-1.183h-5.128a.918.918 0 0 1-.918-.918.918.918 0 0 1 .918-.918h5.128l-1.187-1.187a.916.916 0 0 1 0-1.3.919.919 0 0 1 1.3 0l2.753 2.753a.923.923 0 0 1 .2.3.918.918 0 0 1 0 .7.9.9 0 0 1-.2.3l-2.753 2.754a.915.915 0 0 1-.65.268.914.914 0 0 1-.651-.264Z" transform="translate(298 -48)" style="fill:#d64048"/></svg>
