<svg data-name="Icon/24px/line/menu-close" xmlns="http://www.w3.org/2000/svg" width="24" height="24"><path d="M6.938 6.609h11.25a.188.188 0 0 0 .188-.187V5.109a.188.188 0 0 0-.187-.187H6.938a.188.188 0 0 0-.187.188v1.312a.188.188 0 0 0 .187.187Zm-.188 4.782a.188.188 0 0 0 .188.188h11.25a.188.188 0 0 0 .188-.187v-1.314a.188.188 0 0 0-.187-.187H6.938a.188.188 0 0 0-.187.188ZM18.563 0H.188A.188.188 0 0 0 0 .188V1.5a.188.188 0 0 0 .188.188h18.375a.188.188 0 0 0 .187-.188V.188A.188.188 0 0 0 18.563 0Zm0 14.813H.188A.188.188 0 0 0 0 15v1.313a.188.188 0 0 0 .188.188h18.375a.188.188 0 0 0 .188-.187V15a.188.188 0 0 0-.188-.187ZM.08 8.412 3.743 11.3a.208.208 0 0 0 .338-.162V5.365a.208.208 0 0 0-.338-.165L.08 8.088a.2.2 0 0 0 0 .323Z" transform="translate(2.625 3.75)" style="fill:#333"/></svg>
