<svg id="Icon_solid_Usersetting" data-name="Icon/solid/Usersetting" xmlns="http://www.w3.org/2000/svg" width="24" height="24" viewBox="0 0 24 24"><path id="Rectangle_553" data-name="Rectangle 553" style="fill:none" d="M0 0h24v24H0z"/><path id="Union_21" data-name="Union 21" d="M-244.809-4a.5.5 0 0 1-.495-.438l-.138-1.1a3.7 3.7 0 0 1-.819-.488l-1.038.438a.5.5 0 0 1-.626-.211l-.809-1.4a.5.5 0 0 1 .13-.649l.9-.682a3.644 3.644 0 0 1-.045-.47 3.506 3.506 0 0 1 .048-.469l-.9-.682a.5.5 0 0 1-.13-.649l.809-1.4a.5.5 0 0 1 .626-.211l1.038.437a3.719 3.719 0 0 1 .819-.488l.138-1.1a.5.5 0 0 1 .5-.438h1.617a.5.5 0 0 1 .5.438l.138 1.1a3.7 3.7 0 0 1 .819.488l1.037-.437a.5.5 0 0 1 .627.211l.809 1.4a.5.5 0 0 1-.131.649l-.9.682a3.814 3.814 0 0 1 .035.469 3.508 3.508 0 0 1-.048.469l.9.681a.5.5 0 0 1 .131.649l-.809 1.4a.5.5 0 0 1-.627.211l-1.037-.437a3.719 3.719 0 0 1-.819.488l-.138 1.1a.5.5 0 0 1-.5.438ZM-246-9a2 2 0 0 0 2 2 2 2 0 0 0 2-2 2 2 0 0 0-2-2 2 2 0 0 0-2 2Zm-15.25 3a.75.75 0 0 1-.75-.75v-3.5a4.756 4.756 0 0 1 4.75-4.75h8.5a4.712 4.712 0 0 1 1.736.339 2.621 2.621 0 0 0-.116.237 2.524 2.524 0 0 0-.361-.026 2.51 2.51 0 0 0-2.166 1.25l-.809 1.4a2.508 2.508 0 0 0 .2 2.8 2.508 2.508 0 0 0-.2 2.8l.115.2Zm3.25-16a5 5 0 0 1 5-5 5 5 0 0 1 5 5 5 5 0 0 1-5 5 5 5 0 0 1-5-5Z" transform="translate(263 28)" style="fill:#262626"/></svg>
