<svg data-name="Icon/24px/line/menu-open" xmlns="http://www.w3.org/2000/svg" width="24" height="24" fill="currentColor"><path d="M7.747 7.861h12.562a.217.217 0 0 0 .209-.223V6.077a.217.217 0 0 0-.209-.223H7.747a.217.217 0 0 0-.209.223v1.561a.217.217 0 0 0 .209.223Zm-.209 5.687a.217.217 0 0 0 .209.223h12.562a.217.217 0 0 0 .209-.223v-1.561a.217.217 0 0 0-.209-.223H7.747a.217.217 0 0 0-.209.223ZM20.728 0H.209A.217.217 0 0 0 0 .223v1.561a.217.217 0 0 0 .209.223h20.519a.217.217 0 0 0 .209-.223V.223A.217.217 0 0 0 20.728 0Zm0 17.618H.209a.217.217 0 0 0-.209.223V19.4a.217.217 0 0 0 .209.223h20.519a.217.217 0 0 0 .209-.223v-1.559a.217.217 0 0 0-.209-.223ZM.8 13.439l4.091-3.432a.244.244 0 0 0 .065-.086.261.261 0 0 0 0-.215.244.244 0 0 0-.065-.086L.8 6.186a.231.231 0 0 0-.377.192v6.866a.26.26 0 0 0 .035.132.239.239 0 0 0 .1.092.221.221 0 0 0 .127.024.225.225 0 0 0 .115-.053Z" transform="translate(1.531 2.188)" style="fill:#333"/></svg>
